<svg width="311" height="194" viewBox="0 0 311 194" fill="none" xmlns="http://www.w3.org/2000/svg">
<rect width="311" height="194" rx="25" fill="#EDF2F7"/>
<path fill-rule="evenodd" clip-rule="evenodd" d="M99.5836 53C104.806 52.9995 109.923 54.4637 114.355 57.2262C118.786 59.9887 122.354 63.9389 124.653 68.6277L125.178 69.75H133.084C134.029 69.75 134.96 69.9902 135.787 70.4481C136.615 70.9061 137.313 71.5668 137.815 72.3683C138.317 73.1697 138.608 74.0856 138.659 75.03C138.71 75.9745 138.521 76.9165 138.109 77.7677L137.729 78.4321L129.064 91.4245C128.399 92.4235 128.074 93.6099 128.137 94.808L128.215 95.5227L129.002 99.8442C134.524 130.206 111.649 158.196 81.0246 159.061L79.5618 159.083H32.5836C31.6378 159.083 30.7075 158.843 29.8799 158.385C29.0523 157.927 28.3547 157.267 27.8524 156.465C27.3501 155.664 27.0596 154.748 27.0082 153.803C26.9569 152.859 27.1462 151.917 27.5586 151.066L27.9383 150.401L69.5062 88.0466C70.9152 85.9357 71.6671 83.4546 71.667 80.9167C71.667 73.5127 74.6082 66.412 79.8436 61.1766C85.079 55.9412 92.1797 53 99.5836 53ZM80.042 103.25C78.5289 103.25 76.3402 103.641 74.2576 104.417C72.1639 105.199 71.0081 106.064 70.6061 106.527L51.7121 134.874C57.2843 133.272 63.2417 131.507 68.8139 129.324C74.7713 126.996 79.8577 124.344 83.3808 121.251C86.7978 118.252 88.417 115.154 88.417 111.625C88.417 109.404 87.5346 107.274 85.964 105.703C84.3934 104.132 82.2632 103.25 80.042 103.25ZM99.5836 75.3333C98.1028 75.3333 96.6827 75.9216 95.6356 76.9687C94.5885 78.0157 94.0003 79.4359 94.0003 80.9167C94.0003 82.3975 94.5885 83.8176 95.6356 84.8647C96.6827 85.9118 98.1028 86.5 99.5836 86.5C101.064 86.5 102.485 85.9118 103.532 84.8647C104.579 83.8176 105.167 82.3975 105.167 80.9167C105.167 79.4359 104.579 78.0157 103.532 76.9687C102.485 75.9216 101.064 75.3333 99.5836 75.3333Z" fill="#FBB3AD"/>
<path d="M164.357 145.742C164.357 146.715 164.176 147.553 163.812 148.256C163.461 148.959 162.986 149.557 162.389 150.049C161.791 150.541 161.1 150.945 160.314 151.262C159.541 151.566 158.732 151.807 157.889 151.982C157.045 152.158 156.195 152.275 155.34 152.334C154.496 152.393 153.705 152.422 152.967 152.422C152.24 152.422 151.484 152.393 150.699 152.334C149.926 152.287 149.152 152.199 148.379 152.07C147.605 151.941 146.844 151.771 146.094 151.561C145.344 151.338 144.635 151.062 143.967 150.734L143.932 128.094C144.588 127.824 145.285 127.584 146.023 127.373C146.762 127.15 147.512 126.969 148.273 126.828C149.047 126.676 149.814 126.564 150.576 126.494C151.338 126.412 152.076 126.371 152.791 126.371C153.623 126.371 154.461 126.424 155.305 126.529C156.16 126.635 156.98 126.811 157.766 127.057C158.551 127.303 159.283 127.625 159.963 128.023C160.643 128.41 161.234 128.891 161.738 129.465C162.254 130.039 162.652 130.707 162.934 131.469C163.227 132.23 163.373 133.109 163.373 134.105C163.373 134.762 163.279 135.377 163.092 135.951C162.904 136.525 162.635 137.041 162.283 137.498C161.932 137.955 161.504 138.348 161 138.676C160.496 138.992 159.928 139.227 159.295 139.379C160.057 139.578 160.748 139.871 161.369 140.258C162.002 140.645 162.535 141.113 162.969 141.664C163.414 142.215 163.754 142.836 163.988 143.527C164.234 144.219 164.357 144.957 164.357 145.742ZM155.428 135.723C155.428 135.383 155.357 135.096 155.217 134.861C155.076 134.615 154.9 134.416 154.689 134.264C154.49 134.111 154.268 134 154.021 133.93C153.787 133.859 153.576 133.824 153.389 133.824C153.154 133.824 152.926 133.859 152.703 133.93C152.48 134 152.264 134.082 152.053 134.176L151.947 138.078C152.217 138.078 152.551 138.055 152.949 138.008C153.348 137.961 153.729 137.861 154.092 137.709C154.467 137.545 154.783 137.311 155.041 137.006C155.299 136.689 155.428 136.262 155.428 135.723ZM152.932 141.453C152.592 141.453 152.264 141.488 151.947 141.559L151.877 145.566C152.053 145.602 152.223 145.637 152.387 145.672C152.562 145.695 152.732 145.707 152.896 145.707C153.143 145.707 153.412 145.684 153.705 145.637C153.998 145.578 154.273 145.473 154.531 145.32C154.789 145.156 155 144.939 155.164 144.67C155.34 144.4 155.428 144.043 155.428 143.598C155.428 143.152 155.34 142.789 155.164 142.508C155 142.227 154.795 142.01 154.549 141.857C154.303 141.693 154.033 141.588 153.74 141.541C153.447 141.482 153.178 141.453 152.932 141.453ZM174.799 127.25L172.865 151.191L165.447 151.578V127.742L174.799 127.25ZM196.631 135.055C196.631 135.969 196.549 136.801 196.385 137.551C196.232 138.289 195.986 138.969 195.646 139.59C195.307 140.211 194.867 140.785 194.328 141.312C193.789 141.84 193.139 142.344 192.377 142.824L196.561 150.277L188.65 151.824L185.943 144.336L183.764 144.406L183.447 151.719H175.889C175.947 149.047 176 146.387 176.047 143.738C176.105 141.09 176.17 138.43 176.24 135.758C176.264 134.41 176.287 133.074 176.311 131.75C176.334 130.426 176.381 129.09 176.451 127.742C177.271 127.438 178.08 127.186 178.877 126.986C179.674 126.787 180.471 126.635 181.268 126.529C182.076 126.412 182.891 126.336 183.711 126.301C184.543 126.254 185.393 126.23 186.26 126.23C187.596 126.23 188.885 126.418 190.127 126.793C191.381 127.156 192.488 127.707 193.449 128.445C194.41 129.184 195.178 130.104 195.752 131.205C196.338 132.307 196.631 133.59 196.631 135.055ZM188.756 135.617C188.756 135.125 188.686 134.674 188.545 134.264C188.416 133.854 188.217 133.502 187.947 133.209C187.689 132.904 187.361 132.67 186.963 132.506C186.576 132.33 186.119 132.242 185.592 132.242C185.357 132.242 185.129 132.26 184.906 132.295C184.684 132.318 184.467 132.359 184.256 132.418L183.975 138.957H184.396C184.9 138.957 185.41 138.893 185.926 138.764C186.453 138.635 186.922 138.436 187.332 138.166C187.754 137.896 188.094 137.551 188.352 137.129C188.621 136.707 188.756 136.203 188.756 135.617ZM217.777 138.043C217.777 139.684 217.566 141.166 217.145 142.49C216.723 143.803 216.131 144.975 215.369 146.006C214.619 147.025 213.723 147.904 212.68 148.643C211.637 149.381 210.494 149.99 209.252 150.471C208.01 150.939 206.686 151.291 205.279 151.525C203.885 151.748 202.449 151.859 200.973 151.859C200.422 151.859 199.883 151.848 199.355 151.824C198.828 151.789 198.289 151.742 197.738 151.684L198.23 128.094C199.52 127.684 200.844 127.396 202.203 127.232C203.574 127.057 204.934 126.969 206.281 126.969C207.957 126.969 209.498 127.221 210.904 127.725C212.311 128.229 213.523 128.955 214.543 129.904C215.562 130.854 216.354 132.014 216.916 133.385C217.49 134.756 217.777 136.309 217.777 138.043ZM210.57 139.168C210.582 138.535 210.512 137.926 210.359 137.34C210.219 136.754 209.979 136.238 209.639 135.793C209.311 135.336 208.889 134.973 208.373 134.703C207.857 134.422 207.242 134.27 206.527 134.246L205.824 145.145C206.527 145.039 207.166 144.811 207.74 144.459C208.314 144.096 208.807 143.656 209.217 143.141C209.639 142.613 209.961 142.033 210.184 141.4C210.418 140.756 210.547 140.094 210.57 139.414V139.168ZM236.85 142.648C236.85 144.254 236.568 145.66 236.006 146.867C235.455 148.062 234.693 149.059 233.721 149.855C232.76 150.652 231.629 151.25 230.328 151.648C229.039 152.047 227.65 152.246 226.162 152.246C225.588 152.246 224.955 152.17 224.264 152.018C223.584 151.865 222.893 151.678 222.189 151.455C221.486 151.221 220.807 150.975 220.15 150.717C219.506 150.447 218.932 150.195 218.428 149.961L219.201 142.719C220.197 143.316 221.299 143.773 222.506 144.09C223.725 144.395 224.92 144.547 226.092 144.547C226.314 144.547 226.584 144.541 226.9 144.529C227.217 144.506 227.516 144.453 227.797 144.371C228.09 144.277 228.336 144.143 228.535 143.967C228.734 143.791 228.834 143.539 228.834 143.211C228.834 142.988 228.764 142.801 228.623 142.648C228.482 142.484 228.301 142.355 228.078 142.262C227.855 142.156 227.604 142.08 227.322 142.033C227.041 141.975 226.766 141.934 226.496 141.91C226.227 141.887 225.975 141.875 225.74 141.875C225.506 141.875 225.318 141.875 225.178 141.875C224.17 141.875 223.25 141.699 222.418 141.348C221.598 140.996 220.889 140.51 220.291 139.889C219.705 139.256 219.248 138.512 218.92 137.656C218.592 136.789 218.428 135.852 218.428 134.844C218.428 133.461 218.703 132.225 219.254 131.135C219.816 130.033 220.561 129.102 221.486 128.34C222.424 127.566 223.496 126.975 224.703 126.564C225.91 126.154 227.158 125.949 228.447 125.949C229.021 125.949 229.613 125.973 230.223 126.02C230.832 126.055 231.436 126.125 232.033 126.23C232.643 126.336 233.234 126.471 233.809 126.635C234.383 126.799 234.928 127.004 235.443 127.25L234.775 134.387C233.979 134.117 233.141 133.895 232.262 133.719C231.395 133.531 230.545 133.438 229.713 133.438C229.561 133.438 229.361 133.443 229.115 133.455C228.881 133.455 228.629 133.473 228.359 133.508C228.102 133.531 227.838 133.572 227.568 133.631C227.299 133.689 227.059 133.771 226.848 133.877C226.637 133.971 226.467 134.1 226.338 134.264C226.209 134.428 226.15 134.621 226.162 134.844C226.174 135.102 226.268 135.312 226.443 135.477C226.631 135.629 226.865 135.752 227.146 135.846C227.439 135.928 227.756 135.986 228.096 136.021C228.447 136.057 228.793 136.08 229.133 136.092C229.473 136.092 229.789 136.092 230.082 136.092C230.375 136.08 230.615 136.086 230.803 136.109C231.74 136.168 232.584 136.367 233.334 136.707C234.084 137.047 234.717 137.498 235.232 138.061C235.76 138.623 236.158 139.297 236.428 140.082C236.709 140.855 236.85 141.711 236.85 142.648Z" fill="#464646"/>
</svg>
