<svg width="311" height="194" viewBox="0 0 311 194" fill="none" xmlns="http://www.w3.org/2000/svg">
<rect width="311" height="194" rx="25" fill="#EDF2F7"/>
<path d="M87.2452 82.5H91.1197C96.1273 91.1773 105.508 97 116.248 97C118.74 97 121.187 96.6828 123.499 96.0938V147.75C123.499 151.76 120.258 155 116.248 155C112.237 155 108.997 151.76 108.997 147.75V115.85L78.1818 140.5H90.8705C94.881 140.5 98.1212 143.74 98.1212 147.75C98.1212 151.76 94.881 155 90.8705 155H58.2424C46.2334 155 36.4903 145.258 36.4903 133.25V82.6133C36.4903 78.9656 33.7713 75.8617 30.146 75.4086L28.3559 75.182C24.3907 74.6836 21.5584 71.0586 22.0569 67.0938C22.5554 63.1289 26.1807 60.2969 30.146 60.7953L31.936 61.0219C42.812 62.3812 50.9917 71.625 50.9917 82.6133V101.939C58.7862 90.2258 72.1093 82.5 87.2452 82.5ZM123.499 88.5039C121.233 89.2969 118.786 89.75 116.248 89.75C109.813 89.75 104.012 86.9406 100.025 82.5C99.1861 81.5711 98.4384 80.5742 97.7813 79.5094C95.6967 76.1563 94.4959 72.2141 94.4959 68V41.4242C94.4959 40.0875 95.5608 39.0227 96.8976 39H96.943C97.6907 39 98.3931 39.3625 98.8463 39.9516V39.9742L101.747 43.8258L107.91 52.05L108.997 53.5H123.499L124.586 52.05L130.749 43.8258L133.65 39.9742V39.9516C134.103 39.3625 134.805 39 135.553 39H135.598C136.935 39.0227 138 40.0875 138 41.4242V68C138 71.9195 136.958 75.6125 135.145 78.7844C132.585 83.2703 128.438 86.7594 123.499 88.5039ZM112.623 68C112.623 67.0386 112.241 66.1166 111.561 65.4367C110.881 64.7569 109.959 64.375 108.997 64.375C108.036 64.375 107.114 64.7569 106.434 65.4367C105.754 66.1166 105.372 67.0386 105.372 68C105.372 68.9614 105.754 69.8834 106.434 70.5633C107.114 71.2431 108.036 71.625 108.997 71.625C109.959 71.625 110.881 71.2431 111.561 70.5633C112.241 69.8834 112.623 68.9614 112.623 68ZM123.499 71.625C124.46 71.625 125.382 71.2431 126.062 70.5633C126.742 69.8834 127.124 68.9614 127.124 68C127.124 67.0386 126.742 66.1166 126.062 65.4367C125.382 64.7569 124.46 64.375 123.499 64.375C122.537 64.375 121.615 64.7569 120.935 65.4367C120.255 66.1166 119.873 67.0386 119.873 68C119.873 68.9614 120.255 69.8834 120.935 70.5633C121.615 71.2431 122.537 71.625 123.499 71.625Z" fill="#FBB3AD"/>
<path d="M165.316 127.285L164.332 134.703C163.992 134.609 163.652 134.545 163.312 134.51C162.973 134.475 162.633 134.457 162.293 134.457C161.426 134.457 160.6 134.574 159.814 134.809C159.029 135.031 158.332 135.377 157.723 135.846C157.125 136.314 156.645 136.9 156.281 137.604C155.93 138.307 155.754 139.133 155.754 140.082C155.754 140.691 155.848 141.219 156.035 141.664C156.234 142.109 156.51 142.479 156.861 142.771C157.213 143.064 157.629 143.281 158.109 143.422C158.59 143.562 159.117 143.633 159.691 143.633C160.125 143.633 160.576 143.586 161.045 143.492C161.514 143.398 161.977 143.275 162.434 143.123C162.891 142.971 163.336 142.795 163.77 142.596C164.203 142.396 164.602 142.191 164.965 141.98L164.262 150.242C163.805 150.477 163.307 150.688 162.768 150.875C162.24 151.051 161.695 151.209 161.133 151.35C160.57 151.479 160.008 151.578 159.445 151.648C158.883 151.719 158.344 151.754 157.828 151.754C156.34 151.754 154.951 151.479 153.662 150.928C152.373 150.377 151.254 149.621 150.305 148.66C149.355 147.699 148.605 146.568 148.055 145.268C147.516 143.955 147.246 142.543 147.246 141.031C147.246 139.027 147.533 137.141 148.107 135.371C148.682 133.59 149.525 132.031 150.639 130.695C151.752 129.359 153.129 128.305 154.77 127.531C156.422 126.758 158.32 126.371 160.465 126.371C161.273 126.371 162.1 126.436 162.943 126.564C163.799 126.693 164.59 126.934 165.316 127.285ZM188.59 150.488L179.871 151.613L178.816 147.641H174.809L173.93 151.613L164.965 150.734L171.961 127.32L181.734 126.828L188.59 150.488ZM178.184 142.262L176.848 136.145L175.547 142.262H178.184ZM205.395 127.215L205.219 134.668L199.98 134.879L199.348 151.191L191.93 151.578L191.262 135.266L186.023 135.547L186.234 127.25L205.395 127.215ZM224.414 143C224.414 144.605 224.133 145.994 223.57 147.166C223.02 148.326 222.258 149.287 221.285 150.049C220.324 150.799 219.193 151.355 217.893 151.719C216.604 152.07 215.215 152.246 213.727 152.246C213.152 152.246 212.52 152.17 211.828 152.018C211.148 151.865 210.457 151.678 209.754 151.455C209.051 151.221 208.371 150.975 207.715 150.717C207.07 150.447 206.496 150.195 205.992 149.961L206.766 143.07C207.762 143.668 208.863 144.125 210.07 144.441C211.289 144.746 212.484 144.898 213.656 144.898C213.879 144.898 214.148 144.893 214.465 144.881C214.781 144.857 215.08 144.805 215.361 144.723C215.654 144.629 215.9 144.494 216.1 144.318C216.299 144.143 216.398 143.891 216.398 143.562C216.398 143.34 216.328 143.152 216.188 143C216.047 142.836 215.865 142.707 215.643 142.613C215.42 142.508 215.168 142.432 214.887 142.385C214.605 142.326 214.33 142.285 214.061 142.262C213.791 142.238 213.539 142.227 213.305 142.227C213.07 142.227 212.883 142.227 212.742 142.227C211.734 142.227 210.814 142.068 209.982 141.752C209.162 141.436 208.453 140.99 207.855 140.416C207.27 139.83 206.812 139.127 206.484 138.307C206.156 137.475 205.992 136.555 205.992 135.547C205.992 134.164 206.268 132.928 206.818 131.838C207.381 130.736 208.125 129.805 209.051 129.043C209.988 128.27 211.061 127.678 212.268 127.268C213.475 126.857 214.723 126.652 216.012 126.652C216.586 126.652 217.178 126.676 217.787 126.723C218.396 126.758 219 126.828 219.598 126.934C220.207 127.039 220.799 127.174 221.373 127.338C221.947 127.502 222.492 127.707 223.008 127.953L222.34 135.09C221.543 134.82 220.705 134.598 219.826 134.422C218.959 134.234 218.109 134.141 217.277 134.141C217.125 134.141 216.926 134.146 216.68 134.158C216.445 134.158 216.193 134.176 215.924 134.211C215.666 134.234 215.402 134.275 215.133 134.334C214.863 134.393 214.623 134.475 214.412 134.58C214.201 134.674 214.031 134.803 213.902 134.967C213.773 135.131 213.715 135.324 213.727 135.547C213.738 135.805 213.832 136.004 214.008 136.145C214.195 136.285 214.43 136.391 214.711 136.461C215.004 136.52 215.32 136.549 215.66 136.549C216.012 136.549 216.357 136.543 216.697 136.531C217.037 136.508 217.354 136.49 217.646 136.479C217.939 136.455 218.18 136.449 218.367 136.461C219.305 136.52 220.148 136.719 220.898 137.059C221.648 137.398 222.281 137.85 222.797 138.412C223.324 138.975 223.723 139.648 223.992 140.434C224.273 141.207 224.414 142.062 224.414 143Z" fill="#464646"/>
</svg>
