<?xml version="1.0" encoding="UTF-8"?>
<svg id="Layer_1" data-name="Layer 1" xmlns="http://www.w3.org/2000/svg" version="1.1" viewBox="0 0 24 24">
  <defs>
    <style>
      .cls-1 {
        fill: #464646;
        stroke-width: 0px;
      }
    </style>
  </defs>
  <path class="cls-1" d="M19.1,19.1c-1.3,0-2.4,1.1-2.4,2.4s.2,1.2.7,1.7c.4.4,1,.7,1.7.7s1.2-.2,1.7-.7c.4-.4.7-1,.7-1.7s-.2-1.2-.7-1.7c-.4-.4-1-.7-1.7-.7ZM.2.2v2.4h2.4l4.3,9-1.6,2.9c-.2.3-.3.7-.3,1.1,0,.6.2,1.2.7,1.7.4.4,1,.7,1.7.7h14.2v-2.4H7.8c0,0-.2,0-.2,0,0,0,0-.1,0-.2s0-.1,0-.1l1.1-1.9h8.8c.9,0,1.7-.5,2.1-1.2l4.2-7.7c0-.2.1-.4.1-.6,0-.3-.1-.6-.3-.8-.2-.2-.5-.3-.8-.3H5.1L4,.2M7.3,19.1c-1.3,0-2.4,1.1-2.4,2.4s.2,1.2.7,1.7c.4.4,1,.7,1.7.7s1.2-.2,1.7-.7c.4-.4.7-1,.7-1.7s-.2-1.2-.7-1.7c-.4-.4-1-.7-1.7-.7Z"/>
</svg>