<svg width="311" height="194" viewBox="0 0 311 194" fill="none" xmlns="http://www.w3.org/2000/svg">
<rect width="311" height="194" rx="25" fill="#EDF2F7"/>
<path d="M85.8718 74.9102L91.0857 43.4859C91.5145 40.9031 93.749 39 96.3672 39C98.06 39 99.6399 39.793 100.656 41.1523L104.47 46.25H116.229C119.096 46.25 121.849 47.4055 123.881 49.4445L127.943 53.5H140.583C143.585 53.5 146 55.9242 146 58.9375V64.375C146 74.3891 137.92 82.5 127.943 82.5H112.302L111.151 89.4102L85.8718 74.9102ZM109.887 97.0227V147.75C109.887 151.76 106.659 155 102.664 155H95.4418C91.4468 155 88.2192 151.76 88.2192 147.75V121.65C82.8022 124.437 76.663 126 70.1627 126C63.6623 126 57.5231 124.437 52.1062 121.65V147.75C52.1062 151.76 48.8786 155 44.8836 155H37.661C33.666 155 30.4384 151.76 30.4384 147.75V95.5953C23.938 93.1258 18.8371 87.5977 17.0765 80.5289L16.2189 77.0172C15.2483 73.143 17.5957 69.2008 21.4778 68.2266C25.36 67.2523 29.2647 69.6086 30.2352 73.5055L31.1155 77.0172C31.9054 80.2344 34.7945 82.5 38.1124 82.5H84.5627L109.887 97.0227ZM120.721 57.125C120.721 56.1636 120.34 55.2416 119.663 54.5617C118.986 53.8819 118.067 53.5 117.11 53.5C116.152 53.5 115.233 53.8819 114.556 54.5617C113.879 55.2416 113.498 56.1636 113.498 57.125C113.498 58.0864 113.879 59.0084 114.556 59.6883C115.233 60.3681 116.152 60.75 117.11 60.75C118.067 60.75 118.986 60.3681 119.663 59.6883C120.34 59.0084 120.721 58.0864 120.721 57.125Z" fill="#FBB3AD"/>
<path d="M159.812 138.043C159.812 139.684 159.602 141.166 159.18 142.49C158.758 143.803 158.166 144.975 157.404 146.006C156.654 147.025 155.758 147.904 154.715 148.643C153.672 149.381 152.529 149.99 151.287 150.471C150.045 150.939 148.721 151.291 147.314 151.525C145.92 151.748 144.484 151.859 143.008 151.859C142.457 151.859 141.918 151.848 141.391 151.824C140.863 151.789 140.324 151.742 139.773 151.684L140.266 128.094C141.555 127.684 142.879 127.396 144.238 127.232C145.609 127.057 146.969 126.969 148.316 126.969C149.992 126.969 151.533 127.221 152.939 127.725C154.346 128.229 155.559 128.955 156.578 129.904C157.598 130.854 158.389 132.014 158.951 133.385C159.525 134.756 159.812 136.309 159.812 138.043ZM152.605 139.168C152.617 138.535 152.547 137.926 152.395 137.34C152.254 136.754 152.014 136.238 151.674 135.793C151.346 135.336 150.924 134.973 150.408 134.703C149.893 134.422 149.277 134.27 148.562 134.246L147.859 145.145C148.562 145.039 149.201 144.811 149.775 144.459C150.35 144.096 150.842 143.656 151.252 143.141C151.674 142.613 151.996 142.033 152.219 141.4C152.453 140.756 152.582 140.094 152.605 139.414V139.168ZM182.611 138.535C182.611 139.602 182.488 140.633 182.242 141.629C181.996 142.613 181.639 143.539 181.17 144.406C180.713 145.273 180.15 146.07 179.482 146.797C178.826 147.512 178.082 148.127 177.25 148.643C176.43 149.158 175.533 149.562 174.561 149.855C173.588 150.137 172.557 150.277 171.467 150.277C170.412 150.277 169.404 150.143 168.443 149.873C167.494 149.604 166.604 149.229 165.771 148.748C164.939 148.256 164.184 147.67 163.504 146.99C162.836 146.299 162.262 145.537 161.781 144.705C161.312 143.861 160.943 142.959 160.674 141.998C160.416 141.037 160.287 140.035 160.287 138.992C160.287 137.973 160.41 136.977 160.656 136.004C160.902 135.02 161.254 134.094 161.711 133.227C162.18 132.359 162.742 131.562 163.398 130.836C164.055 130.109 164.787 129.482 165.596 128.955C166.416 128.428 167.301 128.018 168.25 127.725C169.199 127.432 170.201 127.285 171.256 127.285C172.955 127.285 174.502 127.549 175.896 128.076C177.303 128.604 178.498 129.359 179.482 130.344C180.479 131.316 181.246 132.5 181.785 133.895C182.336 135.277 182.611 136.824 182.611 138.535ZM174.807 138.992C174.807 138.488 174.73 138.002 174.578 137.533C174.438 137.053 174.227 136.631 173.945 136.268C173.664 135.893 173.312 135.594 172.891 135.371C172.48 135.137 172.006 135.02 171.467 135.02C170.916 135.02 170.424 135.119 169.99 135.318C169.557 135.518 169.182 135.793 168.865 136.145C168.561 136.484 168.326 136.889 168.162 137.357C167.998 137.814 167.916 138.301 167.916 138.816C167.916 139.309 167.986 139.801 168.127 140.293C168.268 140.785 168.479 141.23 168.76 141.629C169.041 142.027 169.387 142.35 169.797 142.596C170.219 142.842 170.705 142.965 171.256 142.965C171.807 142.965 172.299 142.859 172.732 142.648C173.178 142.426 173.553 142.133 173.857 141.77C174.162 141.395 174.396 140.967 174.561 140.486C174.725 140.006 174.807 139.508 174.807 138.992ZM205.094 148.062C204.543 148.754 203.863 149.357 203.055 149.873C202.246 150.389 201.379 150.816 200.453 151.156C199.527 151.496 198.578 151.754 197.605 151.93C196.633 152.094 195.707 152.176 194.828 152.176C193.129 152.176 191.564 151.889 190.135 151.314C188.705 150.74 187.469 149.943 186.426 148.924C185.395 147.893 184.586 146.668 184 145.25C183.414 143.832 183.121 142.285 183.121 140.609C183.121 139.332 183.268 138.09 183.561 136.883C183.854 135.676 184.27 134.545 184.809 133.49C185.359 132.436 186.027 131.469 186.812 130.59C187.598 129.711 188.488 128.955 189.484 128.322C190.48 127.689 191.57 127.203 192.754 126.863C193.949 126.512 195.215 126.336 196.551 126.336C197.055 126.336 197.594 126.359 198.168 126.406C198.742 126.441 199.311 126.512 199.873 126.617C200.447 126.711 201.004 126.846 201.543 127.021C202.082 127.197 202.574 127.414 203.02 127.672L202.527 134.387C201.871 134.141 201.191 133.977 200.488 133.895C199.797 133.801 199.117 133.754 198.449 133.754C197.512 133.754 196.633 133.883 195.812 134.141C195.004 134.387 194.295 134.756 193.686 135.248C193.088 135.74 192.613 136.355 192.262 137.094C191.91 137.832 191.734 138.688 191.734 139.66C191.734 140.27 191.816 140.861 191.98 141.436C192.145 141.998 192.391 142.502 192.719 142.947C193.059 143.381 193.475 143.732 193.967 144.002C194.471 144.271 195.051 144.406 195.707 144.406C196.152 144.406 196.609 144.348 197.078 144.23C197.559 144.113 197.969 143.914 198.309 143.633L198.379 142.262L194.16 142.191L194.371 136.918C196.117 136.859 197.863 136.812 199.609 136.777C201.355 136.73 203.113 136.672 204.883 136.602L205.094 148.062ZM224.465 143C224.465 144.605 224.184 145.994 223.621 147.166C223.07 148.326 222.309 149.287 221.336 150.049C220.375 150.799 219.244 151.355 217.943 151.719C216.654 152.07 215.266 152.246 213.777 152.246C213.203 152.246 212.57 152.17 211.879 152.018C211.199 151.865 210.508 151.678 209.805 151.455C209.102 151.221 208.422 150.975 207.766 150.717C207.121 150.447 206.547 150.195 206.043 149.961L206.816 143.07C207.812 143.668 208.914 144.125 210.121 144.441C211.34 144.746 212.535 144.898 213.707 144.898C213.93 144.898 214.199 144.893 214.516 144.881C214.832 144.857 215.131 144.805 215.412 144.723C215.705 144.629 215.951 144.494 216.15 144.318C216.35 144.143 216.449 143.891 216.449 143.562C216.449 143.34 216.379 143.152 216.238 143C216.098 142.836 215.916 142.707 215.693 142.613C215.471 142.508 215.219 142.432 214.938 142.385C214.656 142.326 214.381 142.285 214.111 142.262C213.842 142.238 213.59 142.227 213.355 142.227C213.121 142.227 212.934 142.227 212.793 142.227C211.785 142.227 210.865 142.068 210.033 141.752C209.213 141.436 208.504 140.99 207.906 140.416C207.32 139.83 206.863 139.127 206.535 138.307C206.207 137.475 206.043 136.555 206.043 135.547C206.043 134.164 206.318 132.928 206.869 131.838C207.432 130.736 208.176 129.805 209.102 129.043C210.039 128.27 211.111 127.678 212.318 127.268C213.525 126.857 214.773 126.652 216.062 126.652C216.637 126.652 217.229 126.676 217.838 126.723C218.447 126.758 219.051 126.828 219.648 126.934C220.258 127.039 220.85 127.174 221.424 127.338C221.998 127.502 222.543 127.707 223.059 127.953L222.391 135.09C221.594 134.82 220.756 134.598 219.877 134.422C219.01 134.234 218.16 134.141 217.328 134.141C217.176 134.141 216.977 134.146 216.73 134.158C216.496 134.158 216.244 134.176 215.975 134.211C215.717 134.234 215.453 134.275 215.184 134.334C214.914 134.393 214.674 134.475 214.463 134.58C214.252 134.674 214.082 134.803 213.953 134.967C213.824 135.131 213.766 135.324 213.777 135.547C213.789 135.805 213.883 136.004 214.059 136.145C214.246 136.285 214.48 136.391 214.762 136.461C215.055 136.52 215.371 136.549 215.711 136.549C216.062 136.549 216.408 136.543 216.748 136.531C217.088 136.508 217.404 136.49 217.697 136.479C217.99 136.455 218.23 136.449 218.418 136.461C219.355 136.52 220.199 136.719 220.949 137.059C221.699 137.398 222.332 137.85 222.848 138.412C223.375 138.975 223.773 139.648 224.043 140.434C224.324 141.207 224.465 142.062 224.465 143Z" fill="#464646"/>
</svg>
