<svg width="311" height="194" viewBox="0 0 311 194" fill="none" xmlns="http://www.w3.org/2000/svg">
<rect width="311" height="194" rx="25" fill="#EDF2F7"/>
<path d="M127.622 162L108.831 129.61C108.831 117.788 101.467 110.203 92.519 110.203C86.3245 110.203 80.9558 113.62 78.2027 118.677C80.474 117.378 83.1583 116.695 85.9803 116.695C94.9281 116.695 102.224 123.938 102.224 132.822C102.224 141.773 94.9969 149.085 85.9803 149.085H108.694V162H50.1205C48.4686 162 46.7479 161.385 45.509 160.087C44.2901 158.87 43.6059 157.224 43.6059 155.508C43.6059 153.792 44.2901 152.146 45.509 150.93L48.9504 147.513C46.6103 146.488 44.683 144.917 42.7558 143.277C41.2416 146.693 37.8002 149.085 33.8081 149.085C31.2068 149.085 28.7121 148.059 26.8727 146.233C25.0334 144.407 24 141.93 24 139.347C24 136.765 25.0334 134.288 26.8727 132.462C28.7121 130.636 31.2068 129.61 33.8081 129.61L37.0431 130.157V116.695C37.034 112.439 37.8717 108.223 39.508 104.289C41.1443 100.355 43.5471 96.7812 46.5784 93.7717C49.6097 90.7622 53.2099 88.3768 57.1722 86.7522C61.1345 85.1276 65.381 84.296 69.6679 84.305H69.8056C84.3973 84.3733 95.754 90.045 95.754 81.0933C95.754 74.7383 97.1306 72.21 99.4708 68.6567C94.4463 66.3333 88.7335 64.8983 82.7454 64.8983C79.0974 64.8983 76.2066 62.0283 76.2066 58.4067C76.2066 55.4683 78.1338 53.0083 80.8182 52.1883L76.2066 51.915C72.6275 51.915 69.6679 49.045 69.6679 45.4917C69.6679 41.87 72.6275 39 76.2066 39H82.7454C97.1994 39 109.864 46.8583 116.678 58.475L118.605 58.4067C123.492 58.4067 128.035 59.9783 131.751 62.575L134.849 65.1717C149.785 78.4967 147.926 87.5167 147.926 87.585C147.926 96.3317 140.63 103.507 131.751 103.507L128.379 103.165V103.712C128.379 111.297 125.075 118.062 119.913 122.845L142.695 162H127.622ZM128.379 71.39C124.731 71.39 121.84 74.26 121.84 77.8133C121.84 81.435 124.731 84.305 128.379 84.305C131.958 84.305 134.918 81.435 134.918 77.8133C134.918 74.26 131.958 71.39 128.379 71.39Z" fill="#FBB3AD"/>
<path d="M172.498 135.055C172.498 135.969 172.416 136.801 172.252 137.551C172.1 138.289 171.854 138.969 171.514 139.59C171.174 140.211 170.734 140.785 170.195 141.312C169.656 141.84 169.006 142.344 168.244 142.824L172.428 150.277L164.518 151.824L161.811 144.336L159.631 144.406L159.314 151.719H151.756C151.814 149.047 151.867 146.387 151.914 143.738C151.973 141.09 152.037 138.43 152.107 135.758C152.131 134.41 152.154 133.074 152.178 131.75C152.201 130.426 152.248 129.09 152.318 127.742C153.139 127.438 153.947 127.186 154.744 126.986C155.541 126.787 156.338 126.635 157.135 126.529C157.943 126.412 158.758 126.336 159.578 126.301C160.41 126.254 161.26 126.23 162.127 126.23C163.463 126.23 164.752 126.418 165.994 126.793C167.248 127.156 168.355 127.707 169.316 128.445C170.277 129.184 171.045 130.104 171.619 131.205C172.205 132.307 172.498 133.59 172.498 135.055ZM164.623 135.617C164.623 135.125 164.553 134.674 164.412 134.264C164.283 133.854 164.084 133.502 163.814 133.209C163.557 132.904 163.229 132.67 162.83 132.506C162.443 132.33 161.986 132.242 161.459 132.242C161.225 132.242 160.996 132.26 160.773 132.295C160.551 132.318 160.334 132.359 160.123 132.418L159.842 138.957H160.264C160.768 138.957 161.277 138.893 161.793 138.764C162.32 138.635 162.789 138.436 163.199 138.166C163.621 137.896 163.961 137.551 164.219 137.129C164.488 136.707 164.623 136.203 164.623 135.617ZM195.895 150.488L187.176 151.613L186.121 147.641H182.113L181.234 151.613L172.27 150.734L179.266 127.32L189.039 126.828L195.895 150.488ZM185.488 142.262L184.152 136.145L182.852 142.262H185.488ZM216.725 145.742C216.725 146.715 216.543 147.553 216.18 148.256C215.828 148.959 215.354 149.557 214.756 150.049C214.158 150.541 213.467 150.945 212.682 151.262C211.908 151.566 211.1 151.807 210.256 151.982C209.412 152.158 208.562 152.275 207.707 152.334C206.863 152.393 206.072 152.422 205.334 152.422C204.607 152.422 203.852 152.393 203.066 152.334C202.293 152.287 201.52 152.199 200.746 152.07C199.973 151.941 199.211 151.771 198.461 151.561C197.711 151.338 197.002 151.062 196.334 150.734L196.299 128.094C196.955 127.824 197.652 127.584 198.391 127.373C199.129 127.15 199.879 126.969 200.641 126.828C201.414 126.676 202.182 126.564 202.943 126.494C203.705 126.412 204.443 126.371 205.158 126.371C205.99 126.371 206.828 126.424 207.672 126.529C208.527 126.635 209.348 126.811 210.133 127.057C210.918 127.303 211.65 127.625 212.33 128.023C213.01 128.41 213.602 128.891 214.105 129.465C214.621 130.039 215.02 130.707 215.301 131.469C215.594 132.23 215.74 133.109 215.74 134.105C215.74 134.762 215.646 135.377 215.459 135.951C215.271 136.525 215.002 137.041 214.65 137.498C214.299 137.955 213.871 138.348 213.367 138.676C212.863 138.992 212.295 139.227 211.662 139.379C212.424 139.578 213.115 139.871 213.736 140.258C214.369 140.645 214.902 141.113 215.336 141.664C215.781 142.215 216.121 142.836 216.355 143.527C216.602 144.219 216.725 144.957 216.725 145.742ZM207.795 135.723C207.795 135.383 207.725 135.096 207.584 134.861C207.443 134.615 207.268 134.416 207.057 134.264C206.857 134.111 206.635 134 206.389 133.93C206.154 133.859 205.943 133.824 205.756 133.824C205.521 133.824 205.293 133.859 205.07 133.93C204.848 134 204.631 134.082 204.42 134.176L204.314 138.078C204.584 138.078 204.918 138.055 205.316 138.008C205.715 137.961 206.096 137.861 206.459 137.709C206.834 137.545 207.15 137.311 207.408 137.006C207.666 136.689 207.795 136.262 207.795 135.723ZM205.299 141.453C204.959 141.453 204.631 141.488 204.314 141.559L204.244 145.566C204.42 145.602 204.59 145.637 204.754 145.672C204.93 145.695 205.1 145.707 205.264 145.707C205.51 145.707 205.779 145.684 206.072 145.637C206.365 145.578 206.641 145.473 206.898 145.32C207.156 145.156 207.367 144.939 207.531 144.67C207.707 144.4 207.795 144.043 207.795 143.598C207.795 143.152 207.707 142.789 207.531 142.508C207.367 142.227 207.162 142.01 206.916 141.857C206.67 141.693 206.4 141.588 206.107 141.541C205.814 141.482 205.545 141.453 205.299 141.453ZM238.135 145.742C238.135 146.715 237.953 147.553 237.59 148.256C237.238 148.959 236.764 149.557 236.166 150.049C235.568 150.541 234.877 150.945 234.092 151.262C233.318 151.566 232.51 151.807 231.666 151.982C230.822 152.158 229.973 152.275 229.117 152.334C228.273 152.393 227.482 152.422 226.744 152.422C226.018 152.422 225.262 152.393 224.477 152.334C223.703 152.287 222.93 152.199 222.156 152.07C221.383 151.941 220.621 151.771 219.871 151.561C219.121 151.338 218.412 151.062 217.744 150.734L217.709 128.094C218.365 127.824 219.062 127.584 219.801 127.373C220.539 127.15 221.289 126.969 222.051 126.828C222.824 126.676 223.592 126.564 224.354 126.494C225.115 126.412 225.854 126.371 226.568 126.371C227.4 126.371 228.238 126.424 229.082 126.529C229.938 126.635 230.758 126.811 231.543 127.057C232.328 127.303 233.061 127.625 233.74 128.023C234.42 128.41 235.012 128.891 235.516 129.465C236.031 130.039 236.43 130.707 236.711 131.469C237.004 132.23 237.15 133.109 237.15 134.105C237.15 134.762 237.057 135.377 236.869 135.951C236.682 136.525 236.412 137.041 236.061 137.498C235.709 137.955 235.281 138.348 234.777 138.676C234.273 138.992 233.705 139.227 233.072 139.379C233.834 139.578 234.525 139.871 235.146 140.258C235.779 140.645 236.312 141.113 236.746 141.664C237.191 142.215 237.531 142.836 237.766 143.527C238.012 144.219 238.135 144.957 238.135 145.742ZM229.205 135.723C229.205 135.383 229.135 135.096 228.994 134.861C228.854 134.615 228.678 134.416 228.467 134.264C228.268 134.111 228.045 134 227.799 133.93C227.564 133.859 227.354 133.824 227.166 133.824C226.932 133.824 226.703 133.859 226.48 133.93C226.258 134 226.041 134.082 225.83 134.176L225.725 138.078C225.994 138.078 226.328 138.055 226.727 138.008C227.125 137.961 227.506 137.861 227.869 137.709C228.244 137.545 228.561 137.311 228.818 137.006C229.076 136.689 229.205 136.262 229.205 135.723ZM226.709 141.453C226.369 141.453 226.041 141.488 225.725 141.559L225.654 145.566C225.83 145.602 226 145.637 226.164 145.672C226.34 145.695 226.51 145.707 226.674 145.707C226.92 145.707 227.189 145.684 227.482 145.637C227.775 145.578 228.051 145.473 228.309 145.32C228.566 145.156 228.777 144.939 228.941 144.67C229.117 144.4 229.205 144.043 229.205 143.598C229.205 143.152 229.117 142.789 228.941 142.508C228.777 142.227 228.572 142.01 228.326 141.857C228.08 141.693 227.811 141.588 227.518 141.541C227.225 141.482 226.955 141.453 226.709 141.453ZM248.576 127.25L246.643 151.191L239.225 151.578V127.742L248.576 127.25ZM268.387 126.863L268.211 134.316L262.973 134.527L261.637 151.191L254.219 151.578L254.254 134.914L249.016 135.195L249.227 126.898L268.387 126.863ZM287.354 142.648C287.354 144.254 287.072 145.66 286.51 146.867C285.959 148.062 285.197 149.059 284.225 149.855C283.264 150.652 282.133 151.25 280.832 151.648C279.543 152.047 278.154 152.246 276.666 152.246C276.092 152.246 275.459 152.17 274.768 152.018C274.088 151.865 273.396 151.678 272.693 151.455C271.99 151.221 271.311 150.975 270.654 150.717C270.01 150.447 269.436 150.195 268.932 149.961L269.705 142.719C270.701 143.316 271.803 143.773 273.01 144.09C274.229 144.395 275.424 144.547 276.596 144.547C276.818 144.547 277.088 144.541 277.404 144.529C277.721 144.506 278.02 144.453 278.301 144.371C278.594 144.277 278.84 144.143 279.039 143.967C279.238 143.791 279.338 143.539 279.338 143.211C279.338 142.988 279.268 142.801 279.127 142.648C278.986 142.484 278.805 142.355 278.582 142.262C278.359 142.156 278.107 142.08 277.826 142.033C277.545 141.975 277.27 141.934 277 141.91C276.73 141.887 276.479 141.875 276.244 141.875C276.01 141.875 275.822 141.875 275.682 141.875C274.674 141.875 273.754 141.699 272.922 141.348C272.102 140.996 271.393 140.51 270.795 139.889C270.209 139.256 269.752 138.512 269.424 137.656C269.096 136.789 268.932 135.852 268.932 134.844C268.932 133.461 269.207 132.225 269.758 131.135C270.32 130.033 271.064 129.102 271.99 128.34C272.928 127.566 274 126.975 275.207 126.564C276.414 126.154 277.662 125.949 278.951 125.949C279.525 125.949 280.117 125.973 280.727 126.02C281.336 126.055 281.939 126.125 282.537 126.23C283.146 126.336 283.738 126.471 284.312 126.635C284.887 126.799 285.432 127.004 285.947 127.25L285.279 134.387C284.482 134.117 283.645 133.895 282.766 133.719C281.898 133.531 281.049 133.438 280.217 133.438C280.064 133.438 279.865 133.443 279.619 133.455C279.385 133.455 279.133 133.473 278.863 133.508C278.605 133.531 278.342 133.572 278.072 133.631C277.803 133.689 277.562 133.771 277.352 133.877C277.141 133.971 276.971 134.1 276.842 134.264C276.713 134.428 276.654 134.621 276.666 134.844C276.678 135.102 276.771 135.312 276.947 135.477C277.135 135.629 277.369 135.752 277.65 135.846C277.943 135.928 278.26 135.986 278.6 136.021C278.951 136.057 279.297 136.08 279.637 136.092C279.977 136.092 280.293 136.092 280.586 136.092C280.879 136.08 281.119 136.086 281.307 136.109C282.244 136.168 283.088 136.367 283.838 136.707C284.588 137.047 285.221 137.498 285.736 138.061C286.264 138.623 286.662 139.297 286.932 140.082C287.213 140.855 287.354 141.711 287.354 142.648Z" fill="#464646"/>
</svg>
